Gegarandeerd de beste DVDRip van De Storm op het net! Dubbele resolutie van een normale Divx-rip (720x436 vs. 640x272px) Bespaar je de 4GB download, maar geniet van volle kwaliteit!

IMDB info:

Storm, De (2009)

User Rating:6.5/10 - 310 votes

Nederland
Drama
96 minuten

Geregisseerd door Ben Sombogaart
Met Sylvia Hoeks, Barry Atsma en Monic Hendrickx

De Storm gaat over Julia (Sylvia Hoeks), een 18-jarige Zeeuwse boerendochter, die zwanger raakt van haar vriendje Koos, een vissersjongen. Koos schrikt zo van dit nieuws dat hij met de Noorderzon vertrekt. Julia staat er helemaal alleen voor in een vijandig dorp: de zwangerschap en de bevalling worden eerst veroordeeld en later genegeerd door haar famile en dorpsgenoten. In de nacht van 31 januari 1953 breken de dijken in Zeeland tijdens een verschrikkelijke februaristorm op meer dan honderd plaatsen en wordt de boerderij verzwolgen door een zondvloed. Julia komt samen met haar zoon in het water terecht en wordt - tegen haar wil - gered door de jonge luchtmachtsergeant Aldo (Barry Atsma), haar baby in het water achterlatend. Ze is ontroostbaar, hult zich in stilzwijgen en weigert met haar gehate redder te praten. Voorzichtig probeert Aldo in contact te komen met de jonge vrouw, ontrafelt stukje bij beetje haar achtergrond en besluit tenslotte om haar te helpen haar zoon te vinden.

General
Complete name                    : De.Storm.(2009).hq.x264.AC3.Anamorphic.mkv
Format                           : Matroska
File size                        : 1.20 GiB
Duration                         : 1h 32mn
Overall bit rate                 : 1 856 Kbps

VIDEO
Format                           : AVC (h264)
Codec ID                         : V_MPEG4/ISO/AVC (h264)
Duration                         : 1h 32mn
Bit rate                         : 1 371 Kbps
Nominal bit rate                 : 1 400 Kbps
Width                            : 720 pixels
Height                           : 436 pixels
Display aspect ratio             : 2.35:1
Frame rate                       : 25.000 fps
Resolution                       : 8 bits
Colorimetry                      : 4:2:0
Scan type                        : Progressive
Bits/(Pixel*Frame)               : 0.175
Stream size                      : 911 MiB (74%)
Writing library                  : x264 core 79

AUDIO
Format                           : AC-3
Format/Info                      : Audio Coding 3
Codec ID                         : A_AC3
Duration                         : 1h 32mn
Bit rate mode                    : Constant
Bit rate                         : 448 Kbps
Channel(s)                       : 6 channels
Channel positions                : Front: L C R, Surround: L R, LFE
Sampling rate                    : 48.0 KHz
Stream size                      : 298 MiB (24%)
Language                         : Dutch

SUBTITLES
Format                           : VobSub
Language                         : Dutch
